<!-- Icons from Lucide (https://lucide.dev) - ISC License -->
<svg xmlns="http://www.w3.org/2000/svg" viewBox="0 0 24 24" width="24" height="24">
<g id="icon-upload"><path d="M21 15v4a2 2 0 0 1-2 2H5a2 2 0 0 1-2-2v-4"/><polyline points="17 8 12 3 7 8"/><line x1="12" y1="3" x2="12" y2="15"/></g>
<g id="icon-hard-drive"><line x1="22" y1="12" x2="2" y2="12"/><path d="M5.45 5.11L2 12v6a2 2 0 0 0 2 2h16a2 2 0 0 0 2-2v-6l-3.45-6.89A2 2 0 0 0 16.76 4H7.24a2 2 0 0 0-1.79 1.11z"/><line x1="6" y1="16" x2="6.01" y2="16"/><line x1="10" y1="16" x2="10.01" y2="16"/></g>
<g id="icon-wifi"><path d="M4 11a9 9 0 0 1 9 9"/><path d="M4 4a16 16 0 0 1 16 16"/><circle cx="5" cy="19" r="1" fill="currentColor"/></g>
<g id="icon-sliders"><line x1="4" y1="21" x2="4" y2="14"/><line x1="4" y1="10" x2="4" y2="3"/><line x1="12" y1="21" x2="12" y2="12"/><line x1="12" y1="8" x2="12" y2="3"/><line x1="20" y1="21" x2="20" y2="16"/><line x1="20" y1="12" x2="20" y2="3"/><line x1="1" y1="14" x2="7" y2="14"/><line x1="9" y1="8" x2="15" y2="8"/><line x1="17" y1="16" x2="23" y2="16"/></g>
<g id="icon-table"><rect x="3" y="3" width="18" height="18" rx="2" ry="2"/><line x1="3" y1="9" x2="21" y2="9"/><line x1="3" y1="15" x2="21" y2="15"/><line x1="9" y1="3" x2="9" y2="21"/><line x1="15" y1="3" x2="15" y2="21"/></g>
<g id="icon-rocket"><path d="M4.5 16.5c-1.5 1.26-2 5-2 5s3.74-.5 5-2c.71-.84.7-2.13-.09-2.91a2.18 2.18 0 0 0-2.91-.09z"/><path d="M12 15l-3-3a22 22 0 0 1 2-3.95A12.88 12.88 0 0 1 22 2c0 2.72-.78 7.5-6 11a22.35 22.35 0 0 1-4 2z"/><path d="M9 12H4s.55-3.03 2-4c1.62-1.08 5 0 5 0"/><path d="M12 15v5s3.03-.55 4-2c1.08-1.62 0-5 0-5"/></g>
<g id="icon-download"><path d="M21 15v4a2 2 0 0 1-2 2H5a2 2 0 0 1-2-2v-4"/><polyline points="7 10 12 15 17 10"/><line x1="12" y1="15" x2="12" y2="3"/></g>
<g id="icon-cpu"><rect x="7" y="3" width="10" height="18" rx="1"/><path d="M11 3a1 1 0 0 0 2 0"/><path d="M3 7h4M3 11h4M3 15h4M3 19h4M17 7h4M17 11h4M17 15h4M17 19h4"/></g>
<g id="icon-terminal"><polyline points="4 17 10 11 4 5"/><line x1="12" y1="19" x2="20" y2="19"/></g>
<g id="icon-refresh"><polyline points="23 4 23 10 17 10"/><path d="M20.49 15a9 9 0 1 1-2.12-9.36L23 10"/></g>
</svg>